<svg version="1.2" xmlns="http://www.w3.org/2000/svg" viewBox="0 0 2316 731" width="2316" height="731">
	<style>
		.s0 { fill: #007afa } 
		.s1 { fill: #02b4bf } 
		.s2 { fill: #112c50 } 
	</style>
	<g id="Layer 1">
		<path class="s0" d="m46.58 497.81c-4.65 2.82-7.31 6.96-12.6 6.82-5.9-5.48-3.51-12.77-3.47-19.3 0.44-68.89 1.12-137.77 1.68-206.65 0.08-9.35-0.47-18.71-0.16-28.04 0.86-26.29 13.41-46.16 35.64-59.21 67.46-39.59 135.24-78.61 202.91-117.84q5.74-3.34 11.62-6.44c20.01-10.52 23.43-8.53 23.49 13.65 0.06 23.62-0.31 47.25 0.27 70.86 0.33 13.35-3.04 25.2-10.07 36.32-58.08 91.89-116.3 183.69-174.04 275.8-10.38 16.57-26.69 20.44-43.44 24.65-10.38 2.61-21.73 1.85-31.83 9.38z"/>
		<path class="s1" d="m609.91 489.53c-0.38 6.53 1.39 12.28-5.47 17.85-14.28-17.89-36.84-16.53-56.47-22.99-12.73-4.18-22.18-11.59-29.43-23.05-57.3-90.68-114.87-181.18-172.47-271.67-7.9-12.41-11.97-25.4-11.49-40.38 0.78-23.61 0.21-47.25 0.34-70.88 0.03-5.31-1.28-10.89 2.44-16.08 8.38-2.92 15.13 2.16 21.67 5.92 71.64 41.25 143.2 82.64 214.64 124.25 27.17 15.83 36.32 41.27 36.3 71.21-0.04 74.83-0.05 149.66-0.06 225.82z"/>
		<path class="s2" d="m1048.14 480.7c5.8 12.94 12.15 24.51 15.69 39.98-19.84 0-37.84 0.14-55.84-0.07-6.78-0.08-8.35-6.06-10.55-10.91-6.1-13.44-12.31-26.83-18-40.44-3.27-7.83-8.31-11.12-16.94-11.05q-64.96 0.48-129.93 0.12c-8.15-0.04-12.57 3.34-15.65 10.55-5.97 14.03-12.46 27.84-18.86 41.68-2.05 4.42-3.85 9.96-9.65 10.08-17.97 0.36-35.94 0.13-53.23 0.13-2.83-8.73 0.93-13.83 3.31-19 39.81-86.2 79.99-172.22 119.38-258.61 5.83-12.8 13.93-15.02 26.93-17 36.15-5.51 53.28 9.01 66.96 42.7 29.01 71.48 63.6 140.69 96.38 211.84zm-125.23-136.77q-11.37-24.37-22.74-48.73-2.06 0.09-4.11 0.19c-16.55 36.12-33.1 72.25-51.04 111.41 34.81 0 65.19 0.21 95.58-0.12 9.5-0.11 8.15-6.38 5.38-12.46-7.34-16.11-14.73-32.19-23.07-50.29z"/>
		<path class="s2" d="m1315.98 358.44c9.31 34.06 9.11 67.44 2.91 100.55-6.47 34.58-34.28 58.15-70.04 62.02-33.91 3.67-67.67 5.1-103.6-8.09 0 18.46 0.17 35.31-0.03 52.17-0.43 35.19 4.84 31.24-31.35 31.74-4.43 0.06-8.86 0-13.29 0.1-8.96 0.19-11.96-4.69-11.9-13.03 0.55-69.77 0.73-139.53 1.53-209.29 0.48-42.06 17.06-62.48 58.99-66.61 35.11-3.46 70.78-4.3 105.98 1.39 28.87 4.66 49.9 19.84 60.8 49.05zm-76.33 111.85c17.27-5.56 25.07-18.02 25.32-35.55 0.21-14.71 0.46-29.47-0.4-44.15-1.1-18.8-9.94-28.41-28.09-32.61-18.94-4.38-38.15-2.34-57.21-1.97-22.84 0.44-32.85 10.76-33.79 33.83-0.65 15.68-0.45 31.42-0.11 47.12 0.47 22.23 10.9 33.53 33.18 35.03 19.58 1.31 39.23 1.51 61.1-1.7z"/>
		<path class="s2" d="m296.8 599.66c2.95 7.39 3.69 14.41 8.63 19.78 14.51 15.73 37.51 10.87 46.36-10.21 7.18-17.12 10.71-35.65 20.66-54.99 12.84 20.04 31.89 15.91 49.73 15.98 32.95 0.12 65.9 0.25 98.85-0.18 11.93-0.16 20.41 4.61 28.42 15.42-24.24 14.27-47.74 28.26-71.4 41.97-37.86 21.94-75.98 43.42-113.69 65.6-29.39 17.3-57.87 18.02-87.65 0.25-55.72-33.25-112.08-65.45-168.12-98.18-4.99-2.91-10.56-5.23-14.48-10.77 5.6-11.49 15.44-14.03 26.72-14.04q66.39-0.02 132.78-0.07 2.21 0 4.43-0.01c29.78-0.15 29.78-0.15 38.76 29.45z"/>
		<path class="s2" d="m1527.93 373.25c14.52-42.89 41.52-63.17 85.26-66.99 23.69-2.06 47.23-2.49 70.5 2.08 44.42 8.71 67.42 31.7 74.54 76.1 3.5 21.78 3.74 44.16-0.81 66.04-8.07 38.81-33.38 63.32-72.4 70.01-28.34 4.87-56.91 4.7-85.22-0.03-43.94-7.35-71.96-38.68-74.81-84.32-1.28-20.52-2.29-41.31 2.94-62.89zm127.86-17.43c-6.89-0.05-13.78-0.22-20.67-0.13-39.4 0.53-53.43 14.03-55.14 52.95-2.21 50.47 11.1 64.23 62.1 64.14 51.02-0.09 63.77-13.12 62.56-63.95-0.83-34.93-11.65-47.31-48.85-53.01z"/>
		<path class="s2" d="m2186.47 307.15c51.66 12.12 69.75 34.73 69.86 86.23 0.09 37.41-0.3 74.83 0.19 112.24 0.15 11.28-3.27 16.5-15.11 15.54-8.31-0.67-16.74-0.47-25.09-0.04-8.83 0.46-15.71-1.23-16.06-12.96-31.61 17.99-64.2 18.58-97.19 12.5-32.57-6.01-52.05-29.03-52.51-60.09-0.51-34.2 15.76-54.72 50.15-62.96 27.63-6.62 55.8-4.17 83.8-4.61 17.08-0.27 20.01-4.95 12.74-20.56-4.86-10.43-14.02-14.59-24.55-16.82-27.71-5.86-54.94-1.97-81.68 5.21-12.18 3.28-15.72-0.48-16.7-12.07-2.8-32.81-3.15-32.96 30.14-39.39 26.74-5.17 53.7-5.85 82.01-2.22zm-27.02 125.34c-12.76 0.06-25.61-0.92-38 3.45-10.01 3.55-15.19 10.94-15.41 21.18-0.21 9.77 4.66 17.64 14.11 20.31 21.39 6.03 42.77 5.99 63.21-4.13 9.99-4.95 15.4-13.61 17.35-24.31 1.88-10.32-0.3-17.58-13.3-16.63-8.32 0.61-16.72 0.13-27.96 0.13z"/>
		<path class="s2" d="m1437.17 269.51c0.12 37.58 0.12 37.57 35.79 37.44 37.88-0.14 37.65-0.15 35.47 37.31-0.54 9.32-4.17 13.43-13.39 13.34-14.26-0.14-28.54 0.37-42.79-0.05-10.25-0.31-15.52 2.86-15.29 14.18 0.52 26.06-0.01 52.15 0.42 78.21 0.28 16.57 5.5 21.56 22.37 22.71 12.3 0.83 24.64 0.58 36.76-1.71 7.26-1.37 10.34 1.66 10.59 8.24 0.39 10.32 0.47 20.65 0.45 30.98-0.01 5.81-3.5 9.07-9 9.93-25.41 4-50.88 6.07-76.05-1.08-27.76-7.9-41.71-27.4-42.44-60.07-0.63-28.03-0.74-56.09-0.02-84.11 0.33-12.53-3.24-17.6-16.47-17.55-27.89 0.11-27.89-0.49-27.74-28.42 0.12-21.68 0.12-21.68 20.93-21.8 22.95-0.13 22.71-0.13 23.08-22.57 0.68-40.57-6.99-36.13 37.2-36.37 19.05-0.11 19.52 0.6 20.13 21.39z"/>
		<path class="s1" d="m369.88 504.83c-10.82 29.93-21.11 59.15-31.33 88.4-2.15 6.13-3.93 12.86-11.89 13.19-9.07 0.38-10.87-7.22-12.98-13.71-7.14-21.9-14.04-43.88-21.04-65.84-2.16 0.73-3.67 0.83-3.83 1.35-6.25 20.15-20.71 23.26-39.95 22.74-47.24-1.27-94.53-0.36-141.8-0.45-7.98-0.02-15.11 0.74-22.1 5.93-10.14 7.51-20.7 5.71-28.9-3.87-7.58-8.85-6.28-18.3 0.88-26.85 8.41-10.07 18.69-10.97 28.59-2.97 6.48 5.23 13.32 5.5 20.72 5.49 47.27-0.02 94.55-0.36 141.81 0.23 11.6 0.15 18.6-3.41 22.44-14.35 2.27-6.46 5.81-12.48 8.66-18.75 2.7-5.91 5.11-12.25 13.21-11.83 8.7 0.44 10.87 7.41 13 14.04 5.57 17.31 10.96 34.68 16.51 52 0.86 2.68 2.2 5.22 4.78 11.26 8.81-24.54 16.53-46.02 24.22-67.51 3.16-8.8 6.16-17.66 9.44-26.41 2.07-5.52 4.01-11.81 11.34-11.98 8.02-0.19 10.4 6.38 12.68 12.42 5.9 15.64 12.28 31.15 17.24 47.1 3.38 10.87 9.41 14.16 20.48 13.98 37.91-0.59 75.83-0.28 113.74-0.1 7.6 0.03 14.19-1.15 20.56-6.09 9.75-7.57 19.71-5.79 27.4 3.49 7.43 8.97 8.17 19.18 0.39 28.34-7.5 8.83-17.64 9.81-26.46 3.06-8.28-6.33-16.95-6.67-26.35-6.64-40.38 0.12-80.76-0.33-121.13 0.31-12.25 0.19-19.49-3.63-22.86-15.6-2.26-8.01-5.43-15.84-9.05-23.33-1.5-3.12-0.69-9.94-8.42-7.05z"/>
		<path class="s2" d="m1848.31 422.76c0 28.54-0.31 55.61 0.15 82.68 0.19 11.18-3.53 16.01-15.32 15.73-49.95-1.18-41.39 6.9-41.92-40.58-0.58-51.18-0.21-102.38-0.05-153.57 0.06-18.86 1.2-19.72 20.31-20.05 4.92-0.09 9.88 0.3 14.76-0.21 12.94-1.35 22.72 1.23 22.16 19.43 18.6-15.42 38.7-20.44 60.19-20.83 17.61-0.32 19.68 1.72 19.83 18.76q0 0.74 0 1.48c0.16 29.68 0.16 29.68-28.93 30.28-35.26 0.74-51.08 16.84-51.18 52.13-0.01 4.43 0 8.86 0 14.75z"/>
		<path class="s2" d="m2017.24 396.13c0.02 37.88-0.2 74.3 0.21 110.7 0.12 10.93-4.04 14.3-14.82 14.44-40.85 0.54-40.84 0.88-40.84-40.1 0.01-52.18 0.37-104.36-0.23-156.53-0.15-13.25 3.69-18.14 17.49-18.09 37.66 0.16 37.76-0.4 38.23 36.43 0.22 17.22-0.01 34.45-0.04 53.15z"/>
		<path class="s1" d="m317.79 430.99c-24.12-4.58-38.07-17.12-42.09-36.95-3.5-17.27 4.22-36.68 18.9-46.5 16.3-10.91 33.31-11.48 49.9-1.15 17.37 10.82 23.25 27.62 20.34 47.13-2.71 18.14-13.84 30.03-31.37 35.43-4.62 1.42-9.65 1.5-15.68 2.04z"/>
		<path class="s1" d="m1958.12 266.04c-4.64-22.61 0.72-37.19 15.39-44.24 14.18-6.83 33.51-3.02 43.34 8.54 13.15 15.48 10.62 36.99-5.83 49.44-17.8 13.47-39.04 8.35-52.9-13.74z"/>
	</g>
</svg>