<svg xmlns="http://www.w3.org/2000/svg" width="24" height="24" viewBox="0 0 24 24" role="img" aria-label="GitHub">
  <circle cx="12" cy="12" r="11" fill="#0f172a"/>
  <path fill="#fff" d="M12 4.6a7.6 7.6 0 0 0-2.4 14.8c.38.07.52-.16.52-.36v-1.42c-2.12.46-2.57-.9-2.57-.9-.35-.88-.84-1.12-.84-1.12-.69-.47.05-.46.05-.46.76.05 1.16.78 1.16.78.68 1.16 1.78.83 2.21.63.07-.49.27-.83.49-1.02-1.7-.19-3.48-.85-3.48-3.78 0-.83.3-1.52.78-2.05-.08-.19-.34-.97.07-2.02 0 0 .64-.2 2.09.78a7.2 7.2 0 0 1 3.8 0c1.45-.98 2.09-.78 2.09-.78.41 1.05.15 1.83.07 2.02.49.53.78 1.22.78 2.05 0 2.94-1.79 3.58-3.49 3.77.27.23.52.7.52 1.41v2.09c0 .2.14.44.53.36A7.6 7.6 0 0 0 12 4.6z"/>
</svg>